 
 <!-- delete  xmlns="http://www.w3.org/2000/svg" xmlns:svg="http://www.w3.org/2000/svg"-->
 
 <svg width="640" height="480">
    <!-- Created with SVG-edit - https://github.com/SVG-Edit/svgedit-->
    <g class="layer">
     <title>Layer 1</title>
     <rect onClick={handleClick} fill="#ffffff" height="248" id="svg_5" stroke="#000000" transform="matrix(1 0 0 1 0 0)" width="637" x="-17" y="-7"/>
     <rect onClick={handleClick} class="item" fill="#00ff00" height="69" id="svg_3" stroke="#000000" width="75" x="39" y="28"/>
     <rect fill="#00ff00" height="69" id="svg_6" stroke="#000000" width="75" x="43" y="133"/>
     <rect fill="#00ff00" height="69" id="svg_7" stroke="#000000" transform="matrix(1 0 0 1 0 0)" width="75" x="189" y="30"/>
     <rect fill="#00ff00" height="69" id="svg_8" stroke="#000000" transform="matrix(1 0 0 1 0 0)" width="75" x="326" y="31"/>
     <rect fill="#00ff00" height="69" id="svg_10" stroke="#000000" transform="matrix(1 0 0 1 0 0)" width="75" x="191" y="134"/>
     <rect fill="#00ff00" height="69" id="svg_11" stroke="#000000" transform="matrix(1 0 0 1 0 0)" width="75" x="331" y="135"/>
     <text fill="#000000" font-family="Serif" font-size="24" id="svg_13" stroke="#000000" stroke-width="0" text-anchor="middle" transform="matrix(0.868642 0 0 0.888012 13.5158 9.90421)" x="73" xml:space="preserve" y="65">A1</text>
     <text fill="#000000" font-family="Serif" font-size="24" id="svg_15" stroke="#000000" stroke-width="0" style="cursor: move;" text-anchor="middle" transform="matrix(1 0 0 1 0 0) matrix(0.868642 0 0 0.888012 13.5158 9.90421)" x="248.06" xml:space="preserve" y="70.58">A2</text>
     <text fill="#000000" font-family="Serif" font-size="24" id="svg_16" stroke="#000000" stroke-width="0" text-anchor="middle" transform="matrix(0.868642 0 0 0.888012 13.5158 9.90421)" x="74.23" xml:space="preserve" y="184.31">B1</text>
     <text fill="#000000" font-family="Serif" font-size="24" id="svg_17" stroke="#000000" stroke-width="0" style="cursor: move;" text-anchor="middle" transform="matrix(1 0 0 1 0 0) matrix(0.868642 0 0 0.888012 13.5158 9.90421)" x="402.33" xml:space="preserve" y="70.58">A3</text>
     <text fill="#000000" font-family="Serif" font-size="24" id="svg_18" stroke="#000000" stroke-width="0" style="cursor: move;" text-anchor="middle" transform="matrix(1 0 0 1 0 0) matrix(0.868642 0 0 0.888012 13.5158 9.90421)" x="253.82" xml:space="preserve" y="182.06">B2</text>
     <text fill="#000000" font-family="Serif" font-size="24" id="svg_19" stroke="#000000" stroke-width="0" style="cursor: move;" text-anchor="middle" transform="matrix(1 0 0 1 0 0) matrix(0.868642 0 0 0.888012 13.5158 9.90421)" x="408.67" xml:space="preserve" y="185.44">B3</text>
    </g>
   </svg>